<svg width="489" height="665" viewBox="0 0 489 665" fill="none" xmlns="http://www.w3.org/2000/svg">
<g opacity="0.4">
<mask id="path-1-inside-1_169_1694" fill="white">
<path d="M339.257 650.934L342.136 653.425L348.659 648.444L361.312 638.474L370.13 629.268L376.075 613.549L378.377 609.524L378.757 601.469L377.034 602.62L374.732 609.328L371.282 620.257L363.614 632.721L353.257 642.691L345.206 647.292L339.257 650.934ZM307.241 662.819L312.993 661.284L316.06 660.712L319.51 655.152L325.07 651.314L328.14 652.465L332.166 653.237L333.125 655.727L324.882 658.602L314.912 662.052L309.352 664.93L307.241 662.819ZM277.907 346.665L282.857 366.121L291.707 389.23L304.359 411.473L313.178 426.428L324.683 439.467L334.269 448.286L338.106 455.19L335.42 458.256L333.501 461.326L340.405 478.963L347.312 485.867L353.445 498.519L361.884 512.327L372.617 531.883L375.687 549.904L376.838 578.278L378.37 582.5L377.602 590.551L371.85 593.617L372.617 598.222L371.086 602.823L371.853 608.576L372.997 613.165L366.481 620.833L359.193 624.286L349.991 624.666L346.537 628.504L340.789 630.806L337.719 629.655L335.036 627.353L334.269 620.453L332.35 612.398L324.299 600.129L315.86 594.757L306.658 593.989L304.743 597.059L297.455 586.706L295.924 578.263L289.788 568.681L285.567 565.994L281.733 570.979L277.516 570.212L272.531 558.323L265.627 549.121L258.723 536.469L252.587 529.181L244.152 520.362L249.137 514.61L256.804 501.57L256.421 497.736L245.683 495.434L241.85 496.969L242.617 498.5L248.753 500.803L245.303 511.54L243.385 512.691L239.167 503.105L236.097 491.6L235.33 485.08L238.78 473.963V451.337L231.492 442.518L228.426 435.231L216.157 432.165L211.556 430.633L207.719 424.493L199.668 420.66L196.981 412.609L190.465 410.306L184.713 401.487L174.743 398.038L167.839 394.584H161.703L152.117 396.503L151.733 401.104L153.652 403.406L152.501 406.089L145.213 405.709L136.394 414.144L127.956 418.745H118.753L111.086 421.815L110.319 415.295L106.481 410.694L99.5773 408.007L95.7628 404.569L76.5867 395.363L58.5657 391.149L48.212 392.68L34.0247 393.832L19.8374 398.817L11.5829 400.271L11.0226 381.175L4.88638 376.574L0.668945 372.357L1.43647 365.069L25.5937 362.003L86.1805 355.1L102.287 353.565L116.858 353.181L122.994 362.387L126.444 365.837L145.232 366.221L170.894 364.686L221.925 361.616L234.842 360.019L245.699 360.084L246.082 366.988L252.215 368.903L252.986 358.549L249.149 347.812L251.835 343.978L265.638 345.893L277.907 346.665Z"/>
</mask>
<path d="M339.257 650.934L342.136 653.425L348.659 648.444L361.312 638.474L370.13 629.268L376.075 613.549L378.377 609.524L378.757 601.469L377.034 602.62L374.732 609.328L371.282 620.257L363.614 632.721L353.257 642.691L345.206 647.292L339.257 650.934ZM307.241 662.819L312.993 661.284L316.06 660.712L319.51 655.152L325.07 651.314L328.14 652.465L332.166 653.237L333.125 655.727L324.882 658.602L314.912 662.052L309.352 664.93L307.241 662.819ZM277.907 346.665L282.857 366.121L291.707 389.23L304.359 411.473L313.178 426.428L324.683 439.467L334.269 448.286L338.106 455.19L335.42 458.256L333.501 461.326L340.405 478.963L347.312 485.867L353.445 498.519L361.884 512.327L372.617 531.883L375.687 549.904L376.838 578.278L378.37 582.5L377.602 590.551L371.85 593.617L372.617 598.222L371.086 602.823L371.853 608.576L372.997 613.165L366.481 620.833L359.193 624.286L349.991 624.666L346.537 628.504L340.789 630.806L337.719 629.655L335.036 627.353L334.269 620.453L332.35 612.398L324.299 600.129L315.86 594.757L306.658 593.989L304.743 597.059L297.455 586.706L295.924 578.263L289.788 568.681L285.567 565.994L281.733 570.979L277.516 570.212L272.531 558.323L265.627 549.121L258.723 536.469L252.587 529.181L244.152 520.362L249.137 514.61L256.804 501.57L256.421 497.736L245.683 495.434L241.85 496.969L242.617 498.5L248.753 500.803L245.303 511.54L243.385 512.691L239.167 503.105L236.097 491.6L235.33 485.08L238.78 473.963V451.337L231.492 442.518L228.426 435.231L216.157 432.165L211.556 430.633L207.719 424.493L199.668 420.66L196.981 412.609L190.465 410.306L184.713 401.487L174.743 398.038L167.839 394.584H161.703L152.117 396.503L151.733 401.104L153.652 403.406L152.501 406.089L145.213 405.709L136.394 414.144L127.956 418.745H118.753L111.086 421.815L110.319 415.295L106.481 410.694L99.5773 408.007L95.7628 404.569L76.5867 395.363L58.5657 391.149L48.212 392.68L34.0247 393.832L19.8374 398.817L11.5829 400.271L11.0226 381.175L4.88638 376.574L0.668945 372.357L1.43647 365.069L25.5937 362.003L86.1805 355.1L102.287 353.565L116.858 353.181L122.994 362.387L126.444 365.837L145.232 366.221L170.894 364.686L221.925 361.616L234.842 360.019L245.699 360.084L246.082 366.988L252.215 368.903L252.986 358.549L249.149 347.812L251.835 343.978L265.638 345.893L277.907 346.665Z" fill="#00ACDA" stroke="white" stroke-width="2" mask="url(#path-1-inside-1_169_1694)"/>
</g>
<path opacity="0.4" d="M373.612 161.971L350.095 143.076L320.272 125.108L313.525 123.233L283.712 126.672L283.71 126.672L273.357 127.827L273.01 127.866L272.854 127.554L269.065 119.973L263.92 115.56L225.018 116.705L207.873 118.611L186.482 129.309L186.467 129.316L186.452 129.322L172.237 135.307L172.945 139.907L173.004 140.29L172.648 140.442L167.466 142.661L165.682 146.938L166.399 150.861L169.311 153.773L178.715 159.416L186.615 159.039L186.9 159.026L187.056 159.264L195.108 171.537L195.143 171.591L195.164 171.653L196.285 175.013L201.977 181.841L202.038 181.913L202.067 182.003L203.145 185.231L213.665 189.367L213.726 189.391L213.778 189.43L221.066 194.798L221.122 194.839L221.164 194.894L226.472 201.719L231.755 204.737L231.804 204.765L231.846 204.803L236.831 209.405L236.898 209.467L236.939 209.548L239.964 215.603L244.824 220.088L254.722 224.657L254.89 224.734L254.967 224.902L261.487 239.089L261.498 239.114L261.507 239.14L265.254 250.384L271.124 251.853L271.249 251.884L271.343 251.971L276.711 256.956L276.8 257.038L276.841 257.152L279.911 265.587L279.915 265.599L279.919 265.611L281.387 270.391L287.098 273.248L291.071 271.078L295.981 268.047L307.632 255.272L305.411 247.876L305.228 247.269L305.861 247.233L312.581 246.856L320.887 238.932L320.941 238.88L321.008 238.847L324.723 236.987L330.018 229.05L330.046 229.009L330.081 228.974L336.556 222.503L341.509 214.115L341.613 213.939L341.81 213.886L347.324 212.419L349.912 206.132L349.983 205.958L350.15 205.875L353.735 204.083L354.864 189.41L354.87 189.329L354.902 189.254L361.038 174.683L361.076 174.594L361.144 174.525L373.612 161.971Z" fill="#00ACDA" stroke="white"/>
<path d="M265.687 345.392L276.871 346.109L275.103 331.768L275.092 331.681L275.111 331.596L280.484 307.823L280.49 307.796L280.499 307.77L283.906 297.921L282.779 291.919L282.745 291.737L282.838 291.576L292.306 275.29L291.166 272.21L287.347 274.244L287.119 274.365L286.888 274.249L280.748 271.179L280.557 271.084L280.494 270.879L278.966 265.91L275.946 257.597L270.756 252.785L264.748 251.277L264.482 251.211L264.395 250.951L260.566 239.475L254.135 225.481L244.332 220.957L244.261 220.924L244.203 220.87L239.218 216.265L239.151 216.203L239.11 216.121L236.085 210.071L231.209 205.57L225.889 202.532L225.803 202.483L225.742 202.405L220.416 195.556L213.237 190.267L202.561 186.07L202.343 185.984L202.269 185.762L201.148 182.398L195.456 175.575L195.395 175.502L195.366 175.413L194.235 172.021L186.376 160.045L178.61 160.415L178.459 160.423L178.329 160.345L168.743 154.592L168.69 154.561L168.647 154.517L165.581 151.451L165.47 151.34L165.442 151.187L164.675 146.966L164.648 146.82L164.705 146.684L166.62 142.083L166.698 141.895L166.885 141.815L171.93 139.653L171.612 135.207L167.986 136.236L167.959 136.244L167.931 136.248L154.128 138.551L154.115 138.553L154.103 138.554L137.613 140.469L137.603 140.47L137.592 140.471L121.516 141.632L110.034 143.543L110.027 143.545L110.019 143.546L90.0792 146.228L90.0717 146.229L90.0642 146.23L70.1929 148.294V153.001L70.5692 157.939L72.0888 165.909L80.1185 184.648L80.1347 184.685L80.1444 184.725L85.8969 208.111L85.8979 208.115L89.3427 222.668L93.1731 234.152L93.1823 234.179L93.1882 234.208L96.6322 250.669L101.582 265.518L107.668 273.503L107.746 273.606L107.765 273.735L108.876 281.509L113.214 283.314L113.498 283.432L113.521 283.738L113.901 288.723L113.909 288.831L113.872 288.933L109.672 300.39L108.53 307.991L108.157 312.465L111.956 322.714L111.982 322.784L111.986 322.858L112.754 335.51L112.76 335.606L112.729 335.698L110.9 341.193L112.2 342.822L115.564 344.689L115.768 344.803L115.812 345.033L117.328 352.988L123.381 362.061L126.654 365.338L145.221 365.713L170.862 364.183L170.862 364.183L221.874 361.114L234.776 359.52L234.808 359.516L234.84 359.516L245.7 359.581L246.17 359.584L246.196 360.053L246.561 366.611L251.761 368.238L252.474 358.615L248.676 347.977L248.589 347.734L248.737 347.522L251.424 343.685L251.599 343.434L251.902 343.476L265.687 345.392Z" fill="#00ACDA" stroke="white"/>
<path opacity="0.4" d="M220.889 41.4563V50.2601V50.3171L220.876 50.3726L219.725 55.3575L219.689 55.5129L219.57 55.6189L212.745 61.6808L208.951 70.0268L208.796 70.3679L208.425 70.3149L203.168 69.5632L198.466 71.0075L193.196 79.287L192.996 79.6013L192.637 79.4994L220.889 41.4563ZM220.889 41.4563L231.047 43.0864L231.131 43.0999L231.215 43.0847L248.121 40.0172L285.634 35.4216L285.648 35.4199L285.648 35.4197L326.295 29.2797L326.302 29.2785L326.31 29.2771L375.177 20.328L375.185 20.3266L420.644 11.2585L420.657 11.256L420.669 11.2528L447.896 4.34909L447.914 4.34468L447.931 4.33905L459.132 0.627426L463.022 11.319L463.035 11.3552L463.054 11.389L471.493 26.7276L471.527 26.7899L471.577 26.8402L477.238 32.5009L478.564 37.1501L473.429 37.4926L472.143 37.5784L473.15 38.3823L474.862 39.7483L474.133 49.1759L468.253 52.1193L468.062 52.215L467.999 52.4192L466.473 57.3717L463.498 64.0703L454.982 67.7709L449.367 67.0218L449.356 67.0204L446.05 66.6527L442.329 63.6807L441.172 62.7564L441.532 64.1929L442.285 67.1953V69.4362V69.9362H442.785H447.109L448.756 72.5772L444.222 87.314L444.023 87.961H444.7H454.335L455.74 91.4802L456.022 92.1848L456.558 91.6483L461.85 86.3562L463.561 85.7145L459.611 92.9597L452.48 104.215H449.791L447.199 103.107L447.047 103.043L446.888 103.08L440.371 104.615L440.321 104.627L440.274 104.649L428.001 110.402L427.944 110.429L427.896 110.469L412.557 123.121L412.508 123.162L412.47 123.213L404.419 134.323L404.369 134.392L404.345 134.473L399.744 149.815L399.737 149.838L399.733 149.861L398.654 155.252L387.899 156.361L387.835 156.368L387.774 156.391L374.065 161.554L350.699 142.286L350.671 142.262L350.639 142.243L320.729 124.218L320.671 124.183L320.605 124.165L313.701 122.25L313.607 122.224L313.51 122.235L283.603 125.685L283.601 125.685L273.592 126.797L269.914 119.438L269.869 119.348L269.792 119.282L264.423 114.685L264.277 114.559L264.083 114.565L224.971 115.716L224.951 115.716L224.931 115.719L207.674 117.634L207.585 117.643L207.505 117.683L186.049 128.41L171.535 134.52L167.759 135.276L153.976 137.575L137.509 139.491L121.987 140.601L122.702 129.885L126.662 126.642L133.069 125.137L133.391 125.062L133.447 124.736L134.945 116.131L144.687 109.761L153.837 106.33L153.919 106.3L153.985 106.244L163.906 97.8461L174.202 92.8888L174.424 92.7821L174.475 92.5414L175.979 85.4031L184.978 76.4004L185.811 76.1943L220.889 41.4563ZM486.432 64.6711L486.408 64.9744L486.128 65.0924L482.549 66.5992L475.146 72.6762L469.747 77.906L470.986 78.0965L473.492 75.4116L473.511 75.3913L473.532 75.3732L480.24 69.6208L480.294 69.5742L480.359 69.5447L488.131 66.029L488.499 58.3183L487.551 47.901L481.268 35.3337L480.436 35.6115L481.783 39.4902L485.207 45.0036L485.268 45.1011L485.28 45.2152L486.811 59.7863L486.816 59.8321L486.812 59.8781L486.432 64.6711Z" fill="#00ACDA" stroke="white"/>
</svg>
